<!-- <svg class="w-5 h-5 text-white"
        viewBox="0 0 24 24"
        fill="none">
<path d="M12 4.75L19.25 9L12 13.25L4.75 9L12 4.75Z"
        stroke="currentColor"
        stroke-width="1.5"
        stroke-linecap="round"
        stroke-linejoin="round"></path>
<path d="M9.25 12L4.75 15L12 19.25L19.25 15L14.6722 12"
        stroke="currentColor"
        stroke-width="1.5"
        stroke-linecap="round"
        stroke-linejoin="round"></path>
</svg> -->
<svg xmlns="http://www.w3.org/2000/svg" width="36" height="36" viewBox="0 0 36 36"><path fill="#3B88C3" d="M36 7.001c-2 3-2-1-5 2c-3-2-3 3-6 0c.899 2.699 3.419 4.574 6.1 4.926c-.277 1.789.202 3.946-2.1 6.073c-2.008 1.857-3.023.312-8-2.999c-3-1.996-5-4-10-3C5.117 15.178 0 20 0 22s3 13.969 21 13.969c2 0 5.243-.664 8-2.969c5.955-4.978 5.882-15.349 4.58-19.456C35.36 12.417 36 9.394 36 7.001"/><path fill="#55ACEE" d="M30.214 31.812c.149-.165.289-.338.429-.511c1.879-2.351 2.902-5.349 3.355-8.29C31.999 28.008 30.992 33 20 33C9 33 5 20 0 22c0 2 3 13.969 21 13.969c2 0 5.243-.664 8-2.969a12.037 12.037 0 0 0 1.214-1.188"/><circle cx="6.5" cy="21.5" r="1.5" fill="#292F33"/></svg>

